/* XPM */
static char * icon_xpm[] = {
"64 64 184 2",
"  	c #000BFA",
". 	c #2831FB",
"+ 	c #646BFC",
"@ 	c #0914FA",
"# 	c #141EFA",
"$ 	c #F0F1FF",
"% 	c #FFFFFF",
"& 	c #B5B8FE",
"* 	c #010CFA",
"= 	c #8388FD",
"- 	c #3D45FB",
"; 	c #CBCDFE",
"> 	c #C6C8FE",
", 	c #9196FD",
"' 	c #0D17FA",
") 	c #FCFCFF",
"! 	c #F7F7FF",
"~ 	c #4B53FB",
"{ 	c #C9CBFE",
"] 	c #333CFB",
"^ 	c #D0D2FE",
"/ 	c #FEFEFF",
"( 	c #585FFC",
"_ 	c #ACB0FD",
": 	c #E8E9FF",
"< 	c #1B25FB",
"[ 	c #7A80FC",
"} 	c #8A8FFD",
"| 	c #3942FB",
"1 	c #3E46FB",
"2 	c #B9BCFE",
"3 	c #6C72FC",
"4 	c #9DA1FD",
"5 	c #676EFC",
"6 	c #AFB2FD",
"7 	c #5159FC",
"8 	c #0A15FA",
"9 	c #E5E6FE",
"0 	c #BFC2FE",
"a 	c #454DFB",
"b 	c #989CFD",
"c 	c #696FFC",
"d 	c #6269FC",
"e 	c #E6E7FF",
"f 	c #DFE0FE",
"g 	c #E1E2FE",
"h 	c #232CFB",
"i 	c #8085FD",
"j 	c #A9ADFD",
"k 	c #686FFC",
"l 	c #E4E5FE",
"m 	c #2B34FB",
"n 	c #0611FA",
"o 	c #FBFBFF",
"p 	c #040FFA",
"q 	c #E2E3FE",
"r 	c #262FFB",
"s 	c #A3A7FD",
"t 	c #6B71FC",
"u 	c #DDDEFE",
"v 	c #5259FC",
"w 	c #F9F9FF",
"x 	c #030EFA",
"y 	c #6E74FC",
"z 	c #4951FB",
"A 	c #BABDFE",
"B 	c #3A42FB",
"C 	c #C8CAFE",
"D 	c #2D36FB",
"E 	c #D7D9FE",
"F 	c #C1C4FE",
"G 	c #6F75FC",
"H 	c #979BFD",
"I 	c #DEDFFE",
"J 	c #4E56FC",
"K 	c #B6B9FE",
"L 	c #1F29FB",
"M 	c #666DFC",
"N 	c #0B16FA",
"O 	c #FAFAFF",
"P 	c #FDFDFF",
"Q 	c #0712FA",
"R 	c #DADCFE",
"S 	c #2F38FB",
"T 	c #EDEEFF",
"U 	c #1620FA",
"V 	c #8B90FD",
"W 	c #787EFC",
"X 	c #F6F6FF",
"Y 	c #0510FA",
"Z 	c #5A61FC",
"` 	c #444CFB",
" .	c #5B62FC",
"..	c #B7BAFE",
"+.	c #B2B5FD",
"@.	c #3B43FB",
"#.	c #9EA2FD",
"$.	c #656CFC",
"%.	c #A2A6FD",
"&.	c #959AFD",
"*.	c #E7E8FF",
"=.	c #1C26FB",
"-.	c #7F85FC",
";.	c #8489FD",
">.	c #0813FA",
",.	c #ECEDFF",
"'.	c #797FFC",
").	c #6067FC",
"!.	c #6168FC",
"~.	c #A8ACFD",
"{.	c #252EFB",
"].	c #4048FB",
"^.	c #C4C7FE",
"/.	c #CFD1FE",
"(.	c #434BFB",
"_.	c #212BFB",
":.	c #F4F4FF",
"<.	c #565DFC",
"[.	c #BBBEFE",
"}.	c #CCCEFE",
"|.	c #D9DBFE",
"1.	c #EAEBFF",
"2.	c #1E28FB",
"3.	c #4D55FC",
"4.	c #0E18FA",
"5.	c #9398FD",
"6.	c #EFF0FF",
"7.	c #7D83FC",
"8.	c #C5C8FE",
"9.	c #8E93FD",
"0.	c #CDCFFE",
"a.	c #343DFB",
"b.	c #222CFB",
"c.	c #1822FA",
"d.	c #A5A9FD",
"e.	c #5E65FC",
"f.	c #D6D8FE",
"g.	c #A7ABFD",
"h.	c #767CFC",
"i.	c #D8DAFE",
"j.	c #868BFD",
"k.	c #7E84FC",
"l.	c #F2F3FF",
"m.	c #101AFA",
"n.	c #D4D6FE",
"o.	c #4850FB",
"p.	c #0F19FA",
"q.	c #F3F4FF",
"r.	c #2A33FB",
"s.	c #020DFA",
"t.	c #464EFB",
"u.	c #BDC0FE",
"v.	c #3039FB",
"w.	c #ABAFFD",
"x.	c #5D64FC",
"y.	c #8C91FD",
"z.	c #8287FD",
"A.	c #3F47FB",
"B.	c #A6AAFD",
"C.	c #4A52FB",
"D.	c #111BFA",
"E.	c #D5D7FE",
"F.	c #2E37FB",
"G.	c #7B81FC",
"H.	c #F1F2FF",
"I.	c #121CFA",
"J.	c #777DFC",
"K.	c #5058FC",
"L.	c #474FFB",
"M.	c #1A24FB",
"N.	c #F8F8FF",
"O.	c #F5F5FF",
"P.	c #0C16FA",
"Q.	c #2730FB",
"R.	c #BCBFFE",
"S.	c #3C44FB",
"T.	c #9FA3FD",
"U.	c #9CA0FD",
"V.	c #969BFD",
"W.	c #C7C9FE",
"X.	c #EEEFFF",
"Y.	c #1923FA",
"Z.	c #8F94FD",
"`.	c #DCDEFE",
"                                                                                                                                ",
"                                                                                                                                ",
"                                                                                                                                ",
"                                                                                                                                ",
"                                                                                                                                ",
"                                                                                                                                ",
"                                        . + @                                                                                   ",
"                                      # $ % & *                                                                                 ",
"                                      = % % % -                                                                                 ",
"                                      ; % > % ,                                                                                 ",
"                                    ' ) ! ~ % {                                                                                 ",
"                                    ] % ^ ' / ! *                                                                               ",
"                                    ( % _   : % <                                                                               ",
"                                    [ % }   { % |                     1 2 3 *                                                   ",
"                                    4 % 5   6 % 7                   8 9 % % 3                                                   ",
"                                    0 % a   b % c                   d % e % f *                                                 ",
"                                    g % h   i % i                   j % k l % m                                                 ",
"                                  n ) o p   c % b                   q % r s % t                                                 ",
"                                  r % u     v % 6                 @ / w x y % b                                                 ",
"                                  z % A     B % C                 D % E   a % F                                                 ",
"                                  G % H     h % I                 J % K   L % 9                                                 ",
"                                  s % M     N % ! *               3 % H   x O P Q                                               ",
"                                  R % S       T % U               V % W     u % r                                               ",
"                                # / X Y       ^ % ]               j % Z     0 % `                                               ",
"                                 .% ..        +.% 7               { % @.    #.% $.                                              ",
"                                %.% G         &.% y               *.% =.    -.% ;.                                              ",
"                              >.,.% .         '.% }             Q P O x     ).% s                                               ",
"                              !.% >           Z % ~.            {.% I       ].% ^.                                              ",
"                            x /.% +           1 % ^.            (.% F       _.% q                                               ",
"                            k % l N           _.% q             !.% %.      Y ) ) Y                                             ",
"                          a :.% <.            n P o p           i % =         q % h                                             ",
"[.[.[.[.[.[.[.[.; }.|.u 1.% % %.                9 % 2.          4 % M         [.% 3.          4.5.: % % % % % % % % % % % % % % ",
"% % % % % % % % % % % % % 6.7.x                 8.% 1           A % z         9.% [         Q 0.% % % % % % % % % % % % % % % % ",
"` ` ` ` ` ` ` ` a.] r b.c.n                     d.% e.          f.% D         d % g.        h.% i..                             ",
"                                                j.% k.          l.% m.        a.% n.      * u % o.                              ",
"                                                M % #.        p.% q.          8 ) o Q     r.% l s.                              ",
"                                                t.% u.        m % E             |.% v.    c % d.                                ",
"                                                r % u         o.% [.            w.% x.    #.% t                                 ",
"                                                n P o p       $.% #.            7.% y.    0.% @.                                ",
"                                                  e % 2.      i % z.            v % ..  s.X / m.                                ",
"                                                  ^.% A.      4 % M             h % 9   h % g                                   ",
"                                                  B.% e.      2 % C.            x X % D.~ % A                                   ",
"                                                  j.% 7.      E.% F.              F % v G.% ,                                   ",
"                                                  M % 4       H.% I.              J.% g.^.% K.                                  ",
"                                                  L.% u.    4.% :.                M.N.o / O.P.                                  ",
"                                                  Q.% u     r.% i.                  [ % % k                                     ",
"                                                  >./ O x   L.% R.                    ].S.                                      ",
"                                                    9 % L   + % T.                                                              ",
"                                                    > % A.  i % =                                                               ",
"                                                    U.% t   %.% d                                                               ",
"                                                    G % V.  ^.% A.                                                              ",
"                                                    (.% W.s.X.% Y.                                                              ",
"                                                    8 ! ) - % f                                                                 ",
"                                                      K % i.% #.                                                                ",
"                                                      t.% % % ]                                                                 ",
"                                                        Z.`.'.                                                                  ",
"                                                                                                                                ",
"                                                                                                                                ",
"                                                                                                                                ",
"                                                                                                                                ",
"                                                                                                                                ",
"                                                                                                                                ",
"                                                                                                                                ",
"                                                                                                                                "};
