/* XPM */
static char * icon_xpm[] = {
"64 64 454 2",
"  	c None",
". 	c #000000",
"+ 	c #002CBA",
"@ 	c #002BBA",
"# 	c #002AB8",
"$ 	c #002AB7",
"% 	c #0029B7",
"& 	c #0029B6",
"* 	c #0029B5",
"= 	c #0028B5",
"- 	c #0028B4",
"; 	c #0027B5",
"> 	c #0027B4",
", 	c #0029B8",
"' 	c #002BB8",
") 	c #002BB9",
"! 	c #002DBE",
"~ 	c #0027B3",
"{ 	c #0026B2",
"] 	c #0026B3",
"^ 	c #0028B6",
"/ 	c #002AB6",
"( 	c #0027B2",
"_ 	c #0026B1",
": 	c #0025B1",
"< 	c #0025B0",
"[ 	c #0025B2",
"} 	c #0025AF",
"| 	c #0024AF",
"1 	c #0024AE",
"2 	c #0023AF",
"3 	c #0024B0",
"4 	c #0023AE",
"5 	c #0022AD",
"6 	c #0022AE",
"7 	c #0023AD",
"8 	c #0022AC",
"9 	c #0021AB",
"0 	c #0021AC",
"a 	c #002CB9",
"b 	c #0020AA",
"c 	c #0020A9",
"d 	c #0021AA",
"e 	c #0020AB",
"f 	c #001FA9",
"g 	c #001FA8",
"h 	c #001EA8",
"i 	c #001EA7",
"j 	c #001EA9",
"k 	c #0F30B3",
"l 	c #8797D8",
"m 	c #D9DEF2",
"n 	c #7A8BD4",
"o 	c #001DA6",
"p 	c #001DA7",
"q 	c #001DA5",
"r 	c #001EA6",
"s 	c #B0BAE5",
"t 	c #FFFFFF",
"u 	c #6073CA",
"v 	c #0020A8",
"w 	c #001CA5",
"x 	c #001CA4",
"y 	c #001BA4",
"z 	c #001CA6",
"A 	c #0024B1",
"B 	c #445CC3",
"C 	c #EEF0F9",
"D 	c #7183CF",
"E 	c #E0E3F4",
"F 	c #021FA7",
"G 	c #001BA3",
"H 	c #001AA2",
"I 	c #001BA2",
"J 	c #001CA3",
"K 	c #A2AEE0",
"L 	c #7D8DD3",
"M 	c #011FA9",
"N 	c #D9DDF1",
"O 	c #4156BB",
"P 	c #001AA1",
"Q 	c #0019A1",
"R 	c #0019A0",
"S 	c #001AA0",
"T 	c #E8EAF7",
"U 	c #233CB3",
"V 	c #909CD8",
"W 	c #7684CE",
"X 	c #0018A0",
"Y 	c #00189F",
"Z 	c #00189E",
"` 	c #00179E",
" .	c #001AA3",
"..	c #001FA7",
"+.	c #1E3BB4",
"@.	c #EAECF7",
"#.	c #6172C6",
"$.	c #A4ADDE",
"%.	c #00199F",
"&.	c #00169D",
"*.	c #00179C",
"=.	c #00169C",
"-.	c #00179D",
";.	c #091FA1",
">.	c #5A69C0",
",.	c #3A4CB4",
"'.	c #0023B0",
").	c #4B61C3",
"!.	c #BAC2E6",
"~.	c #354AB6",
"{.	c #D0D4ED",
"].	c #00159B",
"^.	c #05199C",
"/.	c #B6BCE2",
"(.	c #FEFEFE",
"_.	c #7B86CC",
":.	c #002AB9",
"<.	c #6C7DCD",
"[.	c #97A2DA",
"}.	c #0F27A7",
"|.	c #F5F5FB",
"1.	c #02189F",
"2.	c #00149B",
"3.	c #00149A",
"4.	c #001499",
"5.	c #6470C1",
"6.	c #E1E3F3",
"7.	c #FAFAFD",
"8.	c #FBFBFD",
"9.	c #283AAB",
"0.	c #00189D",
"a.	c #8D9AD7",
"b.	c #7685CE",
"c.	c #E7E9F5",
"d.	c #1F32A8",
"e.	c #001399",
"f.	c #001398",
"g.	c #001397",
"h.	c #001297",
"i.	c #D4D7ED",
"j.	c #535FBA",
"k.	c #979FD5",
"l.	c #8A93D0",
"m.	c #AEB7E2",
"n.	c #5466C1",
"o.	c #C0C5E7",
"p.	c #4655B6",
"q.	c #001298",
"r.	c #001296",
"s.	c #001196",
"t.	c #001195",
"u.	c #1B2AA0",
"v.	c #F0F1F8",
"w.	c #041598",
"x.	c #3B49AF",
"y.	c #00169B",
"z.	c #0026B4",
"A.	c #D1D6EE",
"B.	c #3246B4",
"C.	c #98A0D7",
"D.	c #6E79C5",
"E.	c #001094",
"F.	c #001093",
"G.	c #5962B8",
"H.	c #B3B7DF",
"I.	c #061698",
"J.	c #071A9A",
"K.	c #F0F1F9",
"L.	c #1229A7",
"M.	c #727EC7",
"N.	c #939BD3",
"O.	c #001095",
"P.	c #000F93",
"Q.	c #000E93",
"R.	c #000F92",
"S.	c #000E92",
"T.	c #9096CF",
"U.	c #7980C5",
"V.	c #D9DBEF",
"W.	c #2D3BA9",
"X.	c #00159A",
"Y.	c #001FAA",
"Z.	c #1B34AE",
"`.	c #4A58B7",
" +	c #BBC0E3",
".+	c #000E91",
"++	c #000E90",
"@+	c #000D90",
"#+	c #C3C6E4",
"$+	c #454EAE",
"%+	c #B0B4DD",
"&+	c #5762B9",
"*+	c #00159C",
"=+	c #4559BB",
"-+	c #C0C6E7",
";+	c #2334A7",
">+	c #E2E4F3",
",+	c #000C8F",
"'+	c #020D8E",
")+	c #F3F3F9",
"!+	c #131F97",
"~+	c #878DCB",
"{+	c #7F87C9",
"]+	c #7280CC",
"^+	c #97A1D8",
"/+	c #041699",
"(+	c #F9F9FC",
"_+	c #FDFDFE",
":+	c #0A1898",
"<+	c #000C8E",
"[+	c #000B8D",
"}+	c #000B8C",
"|+	c #000A8D",
"1+	c #272F9E",
"2+	c #E1E2F1",
"3+	c #000B8E",
"4+	c #000D8F",
"5+	c #6169BA",
"6+	c #A5AAD8",
"7+	c #AFB7E2",
"8+	c #5C6BC1",
"9+	c #D4D6ED",
"0+	c #303BA7",
"a+	c #000A8C",
"b+	c #00098B",
"c+	c #000A8A",
"d+	c #5A5FB3",
"e+	c #AEB0DA",
"f+	c #3841A7",
"g+	c #CED0E9",
"h+	c #0028B3",
"i+	c #031DA5",
"j+	c #2236AB",
"k+	c #AFB4DD",
"l+	c #555EB5",
"m+	c #000C8D",
"n+	c #00098A",
"o+	c #00088A",
"p+	c #000889",
"q+	c #8A8DC8",
"r+	c #7E82C3",
"s+	c #111B94",
"t+	c #010E92",
"u+	c #000F94",
"v+	c #4659BC",
"w+	c #D7DAF0",
"x+	c #888FCC",
"y+	c #7C82C5",
"z+	c #000888",
"A+	c #000788",
"B+	c #000787",
"C+	c #BCBDDF",
"D+	c #4C50AB",
"E+	c #E8E9F4",
"F+	c #1D299D",
"G+	c #0022AB",
"H+	c #ACB4E0",
"I+	c #7A87CD",
"J+	c #001194",
"K+	c #616ABC",
"L+	c #A3A7D6",
"M+	c #000989",
"N+	c #000687",
"O+	c #000585",
"P+	c #010585",
"Q+	c #EDEDF6",
"R+	c #1B2093",
"S+	c #00098C",
"T+	c #C0C2E2",
"U+	c #465ABC",
"V+	c #F4F5FA",
"W+	c #1B30A8",
"X+	c #3A45AB",
"Y+	c #CACCE7",
"Z+	c #000584",
"`+	c #212493",
" @	c #E8E8F3",
".@	c #000686",
"+@	c #989CD0",
"@@	c #6E75BF",
"#@	c #001DA4",
"$@	c #0525AC",
"%@	c #0B27AB",
"&@	c #5D6FC6",
"*@	c #EEEFF8",
"=@	c #7380CA",
"-@	c #13209A",
";@	c #F1F1F8",
">@	c #000A8B",
",@	c #000484",
"'@	c #000382",
")@	c #5254AA",
"!@	c #B6B6DB",
"~@	c #6C71BC",
"{@	c #9A9ED2",
"]@	c #ADB5E1",
"^@	c #041CA2",
"/@	c #EAEBF5",
"(@	c #1A2297",
"_@	c #000483",
":@	c #000381",
"<@	c #8484C1",
"[@	c #8484C2",
"}@	c #000383",
"|@	c #000685",
"1@	c #3F45A7",
"2@	c #C7C9E6",
"3@	c #0C1F9E",
"4@	c #7D87CC",
"5@	c #BDC2E5",
"6@	c #E0E3F3",
"7@	c #EEEFF9",
"8@	c #C3CCED",
"9@	c #CDD2ED",
"0@	c #6071C6",
"a@	c #021CA2",
"b@	c #C2C5E4",
"c@	c #4249A9",
"d@	c #B6B6DA",
"e@	c #5354A9",
"f@	c #000586",
"g@	c #131B93",
"h@	c #010D90",
"i@	c #091B9B",
"j@	c #C9CDE9",
"k@	c #D3D9F1",
"l@	c #9A9FD3",
"m@	c #6A70BB",
"n@	c #000583",
"o@	c #EAEAF4",
"p@	c #202190",
"q@	c #E6E7F3",
"r@	c #212D9F",
"s@	c #6E78C4",
"t@	c #DBDDF0",
"u@	c #4353B6",
"v@	c #2035AB",
"w@	c #112AA9",
"x@	c #112BAA",
"y@	c #112DAB",
"z@	c #112DAD",
"A@	c #112EAF",
"B@	c #1130B1",
"C@	c #1131B3",
"D@	c #1132B5",
"E@	c #1133B6",
"F@	c #0E32B7",
"G@	c #7279C1",
"H@	c #9296CE",
"I@	c #000485",
"J@	c #1F2292",
"K@	c #EBEBF5",
"L@	c #000789",
"M@	c #B9BCDF",
"N@	c #4E57B2",
"O@	c #C6CAE7",
"P@	c #4C5AB9",
"Q@	c #4852B0",
"R@	c #BBBDE0",
"S@	c #5558AD",
"T@	c #B5B6DB",
"U@	c #8B90CB",
"V@	c #7C83C6",
"W@	c #0A1B9A",
"X@	c #091E9F",
"Y@	c #001498",
"Z@	c #222E9F",
"`@	c #E2E3F2",
" #	c #8688C5",
".#	c #8385C4",
"+#	c #6168B8",
"@#	c #A7ABD9",
"##	c #3A47AE",
"$#	c #CDD1EB",
"%#	c #021092",
"&#	c #F5F5FA",
"*#	c #0F1994",
"=#	c #BABBDE",
"-#	c #5054AC",
";#	c #313BA4",
">#	c #DADCEF",
",#	c #747EC6",
"'#	c #959DD5",
")#	c #CACCE8",
"!#	c #3B44A8",
"~#	c #01098B",
"{#	c #1C2395",
"]#	c #030F91",
"^#	c #F2F2F9",
"/#	c #17269E",
"(#	c #AFB5DF",
"_#	c #5D6AC0",
":#	c #9DA2D5",
"<#	c #6970BD",
"[#	c #232B9B",
"}#	c #E7E7F4",
"|#	c #000D91",
"1#	c #ACB0DC",
"2#	c #8189CB",
"3#	c #1A2AA2",
"4#	c #1B2EA6",
"5#	c #7179C3",
"6#	c #969BD2",
"7#	c #000B8F",
"8#	c #575EB4",
"9#	c #B3B5DD",
"0#	c #000F91",
"a#	c #3945AB",
"b#	c #D5D8EE",
"c#	c #A7AEDC",
"d#	c #4450B2",
"e#	c #C3C6E5",
"f#	c #8A8FCC",
"g#	c #7F85C6",
"h#	c #001295",
"i#	c #767FC7",
"j#	c #D6D9EE",
"k#	c #1327A4",
"l#	c #17279F",
"m#	c #F0F0F8",
"n#	c #021193",
"o#	c #C1C4E4",
"p#	c #4C55B1",
"q#	c #1D2EA4",
"r#	c #414FB4",
"s#	c #03189D",
"t#	c #DFE1F1",
"u#	c #2E3BA8",
"v#	c #091797",
"w#	c #F7F7FB",
"x#	c #FCFCFD",
"y#	c #111E99",
"z#	c #A1A8D9",
"A#	c #737CC5",
"B#	c #4D58B5",
"C#	c #CBCEE9",
"D#	c #525FBA",
"E#	c #06179A",
"F#	c #C1C5E5",
"G#	c #707AC4",
"H#	c #00179F",
"I#	c #03179C",
"J#	c #D9DCF0",
"K#	c #D7DAEF",
"L#	c #EAEBF6",
"M#	c #0F209E",
"N#	c #2E40AD",
"O#	c #F2F3F9",
"P#	c #4251B4",
"Q#	c #001599",
"R#	c #0C21A2",
"S#	c #4655B7",
"T#	c #0F23A1",
"U#	c #0019A2",
"                                                                                                                                ",
"      . . . . . . . . . . . . . . . . . . . . . . . . . . . . . . . . . . . . . . . . . . . . . . . . . . . . . . . . . .       ",
"    .     + + + + + + @ @ + + + @ + + @ # $ % % & * * = = - - - ; > - = = = & & & $ , ' ' ) + + + + @ + @ + + + @ + +     .     ",
"  .   ! @ @ + @ @ + @ + + + + @ @ ) ' # % & * - - - ~ ~ ~ { ~ ] { { ~ ~ ~ ~ - - - = ^ & / # ' @ + + @ @ @ + + @ + + + + !   .   ",
"  .   @ @ + + + + @ @ + + @ + ) ) $ % & = = > > ] ( { _ : : : : < < _ : [ : { { ] ~ > = & & % # ' ) + + + @ + + + + + + +   .   ",
"  . + @ @ + + + + + + + + @ ' # % & = > > ] { { _ < < } | | | 1 | | 2 2 3 3 3 < : _ { { ~ = = ^ $ # ) + + + @ + + + + + @ @ .   ",
"  . + + @ + + + @ + + + ) # % & = > > ] _ : < | 3 | 4 4 5 5 6 5 7 7 5 7 7 4 | 4 | 3 : : [ ~ > - ^ $ # # ) + + + + @ @ + + @ .   ",
"  . + + + + + + @ + @ ) ' % * = > ( { : < | | 4 4 7 8 8 8 9 9 9 9 9 9 9 0 8 5 5 4 1 4 | : : { ] > = ^ $ ' a + + + + + + + + .   ",
"  . @ + @ + + + + @ ) # & ^ = ~ ] : < | 2 7 5 8 0 9 9 b b b b b b c b b b d e 0 8 5 5 4 1 3 : { ( > - = % ' a + + + + @ + @ .   ",
"  . + + + + + + + ' # % = > ] { : | 1 4 8 8 9 9 b b f f g g h h h i g g j c c c b 9 9 5 5 4 1 < _ { ~ > * $ $ ) + + + + + + .   ",
"  . + + + @ + + ) # % = ~ ( [ : k l m n 9 e c f g g i i o p o o o q o o r i h i g f b b 9 8 6 1 | < { { - = & # ) + + @ @ + .   ",
"  . @ + + + @ ) ' & * ~ ~ : < | s t t t u v g h o o o w x x y y y x x w w q z o r i g f b e 8 5 4 3 A { ] > = & # ) + + @ @ .   ",
"  . + + + + ) # % = > ] : 3 2 B t C D t E F i o w x x G G G H H H H G I G y J x q o i i g b e 9 8 6 2 A { ~ > ^ $ # a + + + .   ",
"  . @ + @ @ # / = > ] : 3 2 6 K t L M N t O w J G G P P Q Q R Q R Q S Q Q P H G G y q o r g f b 9 5 5 2 < _ ] - ^ $ ) + @ + .   ",
"  . + + @ ) % ^ ; ~ : 3 1 6 8 T t U i V t W G I P P R X Y Y Z Z Y ` Y Y R R R P H  .G y o o ..g b 9 8 7 2 : { ~ - & # ) @ @ .   ",
"  . + + ) # & = ~ { < | 5 8 +.t @.i o #.t $.H R X %.Z Z ` &.*.*.=.&.-.;.>.,.Z Y R Q H I G x o i g b 9 8 6 '.: { > * $ ' + + .   ",
"  . + @ # & = ~ { : 2 4 0 9 ).t !.z w ~.t {.R X Y -.=.=.=.=.].].].].^./.t (._.-.Z Y R Q I y w o i g b 9 8 1 3 : { - ^ % :.@ .   ",
"  . @ ) # & - ] : < 4 5 9 c <.t [.x G }.t |.1.` *.=.].2.3.3.4.4.4.3.5.t 6.7.8.9.&.0.Y X S H G w o h f 9 9 5 2 3 : ~ = & # @ .   ",
"  . @ ) & = ~ { < 2 5 9 d g a.t b.G H R c.t d.=.].3.4.e.f.f.f.g.h.h.i.t j.k.t l.].=.-.` Y P H G w o i f b 0 5 2 : { > * $ ) .   ",
"  . ) $ & > ~ : 3 4 5 9 b h m.t n.H R Y o.t p.].4.f.q.h.r.s.s.t.t.u.t v.w.x.t i.3.].y.-.Z %.Q I y q o h c 9 5 4 3 : ~ - & ' .   ",
"  . ) % = z._ 3 4 5 9 b g i A.t B.Q Y ` C.t D.e.f.h.s.t.t.E.E.F.E.G.t H.t.I.8.8.J.e.].=.&.Z %.P G y o o g b 0 5 | : { - = # .   ",
"  . # & = ] : | 4 8 d c i q K.t L.Y Y *.M.t N.h.r.t.O.E.P.Q.R.S.R.T.t U.P.F.V.t W.f.4.X.=.-.` %.P G w o g c e 5 2 | [ ~ = $ .   ",
"  . , * > { 3 | 5 0 Y.g r Z.t @.X Z &.y.`.t  +r.O.E.F.R..+++@+@+@+#+t $+S.S.%+t &+h.f.e.X.*+-.Y R I y q o g b 8 7 | < ] - & .   ",
"  . & = ~ _ < 4 8 e f h o =+t -+Y ` =.X.;+t >+t.E.P..+.+@+,+,+,+'+)+t !+@+.+~+t {+O.h.f.4.X.=.` %.Q I w o h Y.9 5 4 A { > ^ .   ",
"  . & ; ~ : | 7 0 b g i w ]+t ^+` &.].4./+(+_+:+P..+@+,+<+[+}+|+1+t 2+3+<+4+5+t 6+E.t.h.e.3.=.-.` R I G z i v b 0 4 | : ~ = .   ",
"  . ^ > { : | 7 9 c g o x 7+t 8+` y.X.f.h.9+t 0+.+@+,+3+a+a+b+c+d+t e+a+a+[+f+t g+R.E.t.f.4.X.=.` X Q G w i g b 9 6 | : { - .   ",
"  . = h+_ < 1 0 b c g w i+@.t j+&.].4.q.r.k+t l+@+<+m+a+n+o+p+p+q+t r+o+b+a+s+t )+t+u+t.h.f.3.].` Y Q I x o g Y.9 7 | : { - .   ",
"  . = ~ _ < 4 0 e f i q v+t w+Z =.3.e.g.s.x+t y+,+[+a+b+p+z+A+B+C+t D+A+o+b+}+E+t F+R.E.s.g.4.].=.` X H x w h f 9 8 2 3 { > .   ",
"  . = ] : 3 4 G+d g r w H+t I+-.=.X.f.r.J+K+t L+<+a+n+M+A+N+O+P+Q+t R+B+A+o+S+T+t $+R.E.t.h.e.2.&.Z X P x w p f b 8 4 < _ ~ .   ",
"  . = ] _ | 5 8 b h p U+t V+W+-.*+4.g.s.E.X+t Y+[+a+n+A+N+O+Z+`+t  @Z+.@N+p+b++@t @@.+P.E.h.f.3.*+` Y P G #@i j b 0 4 | : ~ .   ",
"  . = ] : 1 5 $@b %@&@*@t =@Y -.y.4.q.s.u+-@t ;@[+>@p+B+.@,@'@)@t !@,@O+N+A+n+~@t {@.+P.E.s.f.3.*+-.%.P G w o g b 0 4 | : ~ .   ",
"  . t t t t t t t t t t ]@^@Z *.].4.g.s.E.S./@t (@n+p+N+O+_@:@<@t [@}@,@|@B+p+1@t 2@++R.E.s.f.3@4@5@{.6@*@7@C C C C C C C 8@.   ",
"  . t t t t t t t (+9@0@a@R Y =.].4.h.t.F.S.b@t c@b+p+B+O+_@'@d@t e@'@,@f@A+M+g@t )+h@R.E.r.i@j@t t t t t t t t t t t t t k@.   ",
"  . ; ( : | 4 9 c h o y G R Y -.].4.h.s.E.R.l@t m@b+p+N+|@n@'@o@t p@'@Z+.@B+n+>@q@t r@S.E.r.s@t t@u@j+v@w@x@y@z@A@B@C@D@E@F@.   ",
"  . - { : | 5 9 f h o x I R Y &.*+4.q.s.E.S.G@t H@b+o+A+.@I@J@t K@}@_@O+N+L@o+>@M@t N@P.E.r.O@t P@-.Y P G w o f b 8 4 } : ~ .   ",
"  . - ~ : | 5 8 b h o x I Q Y &.*+4.g.r.t.P.Q@t R@>@n+p+B+f@S@t T@Z+O+f@B+p+n+[+U@t V@P.O.W@7.7.X@` Y P G x p g b 8 4 3 _ ~ .   ",
"  . = ~ : | 7 8 b f o x G Q Y -.].3.Y@h.O.E.Z@t `@}+>@n+p+B+ #t .#.@N+B+L@n+S+[++#t @#F.t.##t $#=.` X P y q i f d 8 4 3 _ ~ .   ",
"  . = ~ _ 3 4 0 e f i w y P R Z =.X.4.h.t.E.%#&#(.*#a+b+o+p+=#t -#B+z+p+n+a+[+3+;#t >#O.s.,#t '#-.Y R H x o i f b 5 4 A { > .   ",
"  . ^ - _ < 4 8 e f i o x H Q Y -.*+3.f.r.E.F.)#t !#3+}+b+~#Q+t {#o+o+n+>@a+<+,+]#^#(./#h.(#t _#-.Y R H x o ..b 9 5 | < { > .   ",
"  . = > { < 1 5 9 c i o w G Q Y ` =.X.e.g.t.E.:#t <#,+3+[+[#t }#>@>@S+}+[+m+4+|#.+1#t 2#3#(+8.4#` X P G w p g b 0 5 3 _ ] > .   ",
"  . & - ~ : | 4 8 d f i w y H R Z =.y.3.e.h.s.5#t 6#++4+7#8#t 9#|+[+[+m+,+@+.+0#P.a#(.(+b#t c#` Y Q H y q i g e 5 4 | _ ~ = .   ",
"  . $ = ~ { 3 2 5 9 c i o x G P Y ` =.].4.q.h.d#t e#.+.+@+f#t g#4+<+,+@+++.+S.P.O.h#i#_+t j#k#` R P G w o g b 0 5 2 < { > = .   ",
"  . # ^ > { < 2 5 0 c g r w J P Q Y -.*+X.4.g.l#t m#n#R.S.o#t p#++|#.+.+.+R.F.t.s.r.f.q#r#s#` Y Q I y w p g b 0 7 | : { - & .   ",
"  . # & - ~ : 3 4 8 e f i o x G P X Z &.=.X.4.f.t#t u#O.v#w#x#y#S.P.P.P.u+E.t.s.h.e.4.].*+&.Z R H G x r h c 9 5 4 < _ > = / .   ",
"  . # $ = > [ < 4 4 0 b f i q x I Q R ` =.].X.3.z#t A#r.B#t C#E.E.E.J+t.s.s.h.f.e.4.].=.-.` Y P I x q i f d 0 4 | < { > & $ .   ",
"  . ) $ & - ~ : | 4 5 9 c g r q J I Q Y ` -.*+].D#t t@E#F#t G#s.s.r.r.h.h.g.e.4.2.].=.&.H#X P H G w r g c 9 8 1 < : ~ = & # .   ",
"  . + ' % * ~ { : | 5 0 b f h o w J H P R Y &.&.I#J#t K#t L#M#f.f.f.f.Y@4.e.X.].=.*.-.Y %.Q H G w p g b 9 8 6 | < { h+* $ ) .   ",
"  . @ a # & - ] : 3 1 5 0 b f h o w G H Q R Y ` &.N#K.t O#P#3.4.Q#X.Q#X.].].*+&.&.Z Y R P G J w i h f d 8 4 2 < _ ~ = & # ) .   ",
"  . @ @ ' % * - { < | 4 5 9 b g i o #@G G H R Y Z ` R#S#T#*+].=.y.].=.*+=.&.` ` Z %.R H G y w r ..g b 9 7 2 | _ ] = & $ ) + .   ",
"  . + @ a # & = > { < | 5 5 9 f g ..o q x G H P R X Y Z -.` -.-.&.` -.-.` Z Y X R P H G y w p g f b 9 8 4 | : { > = % ' ) + .   ",
"  . + + + ) # & = ~ : 3 | 4 0 9 b f h i q w y G H Q Q R X %.Y Y Y Y Y Y R R Q U#H G y w o p h g b 0 8 4 3 < { ~ = & ' ) @ + .   ",
"  . + + + + ) % ^ > ] _ < | 4 8 9 d f g i o q w x G I H P P Q Q Q S Q H P I G G y w q o i h b 9 9 8 4 | 3 { ~ = & $ ) + @ @ .   ",
"  . + + + + + ' % * - ~ : < | 6 5 9 e c g h r o w w y x G G I G  .I G G y G x x w p i h g b b 0 8 4 3 : { ~ ; & $ ' @ + @ + .   ",
"  . + + + + + a # & = > { : 3 | 4 5 8 9 b c g h r i r w w q x w x x #@w w o o i i h g c b 9 0 6 1 | : { ~ - & $ # a @ @ + + .   ",
"  . + + + + + + ) ' $ ^ > ~ [ : 3 | 7 8 9 9 b b c g i h i o p o o r i i p i g h f c b 9 0 5 4 2 3 : { > - ^ $ ' ) + + + @ @ .   ",
"  . @ + + + @ + + ) # $ = - > { : < | 4 5 5 0 9 b b b f f g g h g g f g f c Y.b b 9 0 8 4 4 | < { { ~ - & $ # a @ + + @ + + .   ",
"  . @ + + + + @ + + a # / & - ~ ( [ : < | 4 5 5 8 8 9 9 b 9 b c b b d e d 9 9 0 0 5 4 2 | < _ { { - * & % # a + + + + + + @ .   ",
"  . + + + + + @ @ @ + a # $ & = - ~ ] [ < | | | 4 6 5 5 0 8 0 0 8 0 0 0 8 8 7 4 4 4 | 3 : [ ] > > * & # ) ) + @ + + + + + + .   ",
"  . + @ + @ @ + + + + + @ ) $ & * - - ] { [ : < < | 2 4 4 7 4 4 5 4 4 4 4 | 1 | 3 < : [ { ~ > = & % # ) + + + + + @ + @ @ + .   ",
"  .   @ @ @ + + @ + + + @ + ) # # & & - > ~ { [ [ : < < 3 | 3 | | 3 | | 3 < : _ { { { ~ > - ^ & $ # ) + + + + @ + + @ + +   .   ",
"  .   ! + @ + + @ + + + + + + @ ) # % & = = > > ] ] { { { [ { _ : : : : { { ] { ~ ~ - = & & $ ' ) + @ + + + @ @ + + + + !   .   ",
"    .     + @ + + + @ @ @ + + + @ a ' # $ / ^ * = > > > > ~ ] ~ ~ ~ ~ ~ > > - - = & & $ , # ) @ @ @ @ + + + + + + + +     .     ",
"      . . . . . . . . . . . . . . . . . . . . . . . . . . . . . . . . . . . . . . . . . . . . . . . . . . . . . . . . . .       ",
"                                                                                                                                "};
